<svg width="480" height="360"
  xmlns="http://www.w3.org/2000/svg"
  xmlns:html="http://www.w3.org/1999/xhtml">
  <title>Path With Round Caps</title>
  <html:link rel="author" title="Skef Iterum" href="https://github.com/skef/"/>

  <path stroke="none" fill="blue" d="M219.021 20.2002l50 5c20.1914 2.01855 35.9795 19.0801 35.9795 39.7998c0 22.0762 -17.9238 40 -40 40c-1.35742 0 -2.69824 -0.0673828 -4.02051 -0.200195l-50 -5c-20.1914 -2.01855 -35.9795 -19.0801 -35.9795 -39.7998
c0 -22.0762 17.9238 -40 40 -40c1.35742 0 2.69824 0.0673828 4.02051 0.200195z"/>
  <path stroke="black" stroke-width="2.4" fill="none" d="M219.021 20.2002l50 5c20.1914 2.01855 35.9795 19.0801 35.9795 39.7998c0 22.0762 -17.9238 40 -40 40c-1.35742 0 -2.69824 -0.0673828 -4.02051 -0.200195l-50 -5c-20.1914 -2.01855 -35.9795 -19.0801 -35.9795 -39.7998
c0 -22.0762 17.9238 -40 40 -40c1.35742 0 2.69824 0.0673828 4.02051 0.200195z"/>
</svg>
