<svg xmlns="http://www.w3.org/2000/svg" xmlns:html="http://www.w3.org/1999/xhtml" xmlns:xlink="http://www.w3.org/1999/xlink" id="svg-root" width="100%" height="100%" viewBox="0 0 480 360"><g id="testmeta"><title>Marker: &apos;orient&apos;</title><html:link href="http://tavmjong.free.fr" rel="author" title="Tavmjong Bah"/><html:link href="https://www.w3.org/TR/SVG2/painting.html#OrientAttribute" rel="help"/><html:link href="markers-orient-001-ref.svg" rel="match"/></g><style id="test-font" type="text/css">@font-face{font-family:FreeSans;src:url(../fonts/FreeSans.woff) format(&quot;woff&quot;)}#reference{display:none}</style><defs><path id="triangle" d="m 0,0 0,-2.5 10,2.5 -10,2.5 z"/><marker id="OrientAuto" markerHeight="10" markerWidth="5" overflow="visible"><use xlink:href="#triangle"/></marker><marker id="OrientFixed" markerHeight="10" markerWidth="5" orient="45" overflow="visible"><use xlink:href="#triangle"/></marker><marker id="OrientAutoReverse" markerHeight="10" markerWidth="5" orient="auto-start-reverse" overflow="visible"><use xlink:href="#triangle"/></marker></defs><g id="reference" fill="red"><use transform="translate(120,120) scale(4,4)" xlink:href="#triangle"/><use transform="translate(240,120) scale(4,4)" xlink:href="#triangle"/><use transform="translate(360,120) scale(4,4)" xlink:href="#triangle"/><use transform="translate(120,220) scale(4,4) rotate(45)" xlink:href="#triangle"/><use transform="translate(240,220) scale(4,4) rotate(45)" xlink:href="#triangle"/><use transform="translate(360,220) scale(4,4) rotate(45)" xlink:href="#triangle"/><use transform="translate(120,320) scale(4,4) rotate(180)" xlink:href="#triangle"/><use transform="translate(240,320) scale(4,4)" xlink:href="#triangle"/><use transform="translate(360,320) scale(4,4)" xlink:href="#triangle"/></g><g id="test-body-content" font-size="16"><path stroke="#000" stroke-width="4" d="m 120,120 120,0 120,0" style="marker:url(#OrientAuto)"/><path stroke="#000" stroke-width="4" d="m 120,220 120,0 120,0" style="marker:url(#OrientFixed)"/><path stroke="#000" stroke-width="4" d="m 120,320 120,0 120,0" style="marker:url(#OrientAutoReverse)"/></g></svg>