<svg width="800" height="600"
  xmlns="http://www.w3.org/2000/svg"
  xmlns:html="http://www.w3.org/1999/xhtml">
  <title>Miter joins within stroke-miterlimit</title>
  <html:link rel="author" title="Skef Iterum" href="https://github.com/skef/"/>
  <html:link rel="help" href="https://www.w3.org/TR/SVG2/painting.html#LineJoin"/>
  <html:link rel="match" href="miter-limit-002-ref.svg"/>

  <path fill="none" stroke="black" stroke-width="30" stroke-linejoin="miter" stroke-miterlimit="0.5" d="M 50 565 l 30 -360 l 30 360"/>
  <path fill="none" stroke="black" stroke-width="30" stroke-linejoin="miter" stroke-miterlimit="12.039" d="M 212 565 l 30 -360 l 30 360"/>
  <path fill="none" stroke="black" stroke-width="30" stroke-linejoin="miter" stroke-miterlimit="12.039" d="M 356 354 c 19 0 38 -29 48 -149 c 10 120 5 148 30 174"/>
  <path fill="none" stroke="black" stroke-width="35" stroke-linejoin="miter" stroke-miterlimit="5.40" d="M 536 565 l 30 -160 l 30 160"/>
  <path fill="none" stroke="black" stroke-width="35" stroke-linejoin="miter" stroke-miterlimit="5.40" d="M 523 191 c 12 -6 37 -40 43 -72 c 6 32 28 48 28 88"/>
  <path fill="none" stroke="black" stroke-width="40" stroke-linejoin="miter" stroke-miterlimit="2.82" d="M 698 565 l 30 -80 l 30 80"/>
  <path fill="none" stroke="black" stroke-width="40" stroke-linejoin="miter" stroke-miterlimit="1.92" d="M 698 420 l 30 -50 l 30 50"/>
  <path fill="none" stroke="black" stroke-width="40" stroke-linejoin="miter" stroke-miterlimit="1.39" d="M 698 300 l 30 -30 l 30 30"/>
  <path fill="none" stroke="black" stroke-width="40" stroke-linejoin="miter" stroke-miterlimit="1.18" d="M 698 200 l 30 -20 l 30 20"/>
  <path fill="none" stroke="black" stroke-width="40" stroke-linejoin="miter" stroke-miterlimit="1.03" d="M 698 100 l 30 -10 l 30 10"/>
  <path fill="green" stroke="none"
d="M63.7598 564.856l14.9443 -179.333l1.2959 -15.5449l1.2959 15.5449l14.9443 179.333l27.3057 -2.27539l-29.7949 -357.541h-27.502l-29.7949 357.541zM33.7598 563.605l29.9971 -359.975l0.0996094 -1.19043h1.19629h29.8945h1.19629l0.0996094 1.19043l30 360.003
l0.136719 1.32031l-1.32031 0.110352l-29.8975 2.49121l-1.29688 0.107422l-0.108398 -1.29395l-13.7568 -165.082l-13.7568 165.082l-0.108398 1.29395l-1.29688 -0.107422l-29.8975 -2.49121l-1.32031 -0.110352l0.136719 -1.32031zM225.76 564.856l14.9443 -179.333
l1.2959 -15.5449l1.2959 15.5449l14.9443 179.333l27.3057 -2.27539l-29.7949 -357.541h-27.502l-29.7949 357.541zM195.76 563.605l29.9971 -359.975l0.0996094 -1.19043h1.19629h29.8945h1.19629l0.0996094 1.19043l30 360.003l0.136719 1.32031l-1.32031 0.110352
l-29.8975 2.49121l-1.29688 0.107422l-0.108398 -1.29395l-13.7568 -165.082l-13.7568 165.082l-0.108398 1.29395l-1.29688 -0.107422l-29.8975 -2.49121l-1.32031 -0.110352l0.136719 -1.32031zM357.3 367.672c5.78223 -0.25 11.7334 -2.16406 16.9541 -5.75684
c4.4707 -3.07715 8.31836 -7.18945 11.7158 -12.1377c4.16992 -6.07422 7.80273 -13.501 11.0977 -22.7324l1.86328 -5.22266l0.652344 5.50488c1.78418 15.0625 4.19629 27.0654 8.83984 37.8418c3.60156 8.36035 8.57715 15.7129 14.8115 22.3838l19.748 -18.9893
c-4.26953 -4.60156 -7.08398 -8.88086 -9.38281 -14.2148c-3.07715 -7.14453 -5.22949 -16.6914 -6.89062 -30.9785c-1.49121 -12.8184 -2.59375 -29.2607 -4.01074 -50.5723c-1.23438 -18.5732 -2.71484 -40.8467 -4.94727 -67.7578h-27.5029
c-3.03809 36.0605 -6.89941 63.5518 -11.2197 84.0537c-3.49512 16.5771 -7.31152 28.5537 -10.9717 36.6367c-2.93945 6.49023 -5.72363 10.3047 -7.70996 12.2539c-1.09473 1.07324 -1.93457 1.60254 -2.51172 1.88184
c-0.179688 0.0869141 -0.358398 0.15918 -0.535156 0.217773v27.5879zM354.7 339v-1.2998h1.2998c0.370117 0 0.0761719 0.12793 0.704102 -0.175781c0.317383 -0.154297 0.889648 -0.480469 1.82227 -1.39551c1.65234 -1.62109 4.31934 -5.19531 7.16113 -11.4688
c3.54492 -7.8291 7.32812 -19.6553 10.7959 -36.1055c4.33691 -20.5742 8.22656 -48.3516 11.2734 -84.9238l0.0996094 -1.19043h1.19629h29.8945h1.19629l0.0996094 1.19043c2.28906 27.4697 3.79688 50.1455 5.0498 68.999
c1.41602 21.3018 2.52051 37.7246 3.99805 50.4375c1.64746 14.1699 3.78027 23.4824 6.69727 30.2539c2.3418 5.43359 5.14258 9.58203 9.76074 14.3857l0.900391 0.936523l-0.9375 0.901367l-21.6201 20.7891l-0.936523 0.900391l-0.900391 -0.9375
c-6.84277 -7.11523 -12.3174 -15.0391 -16.2207 -24.1006c-4.2334 -9.82422 -6.63281 -20.54 -8.37305 -33.3535c-2.85938 7.17773 -5.99902 13.2354 -9.54688 18.4033c-3.53418 5.14746 -7.59668 9.51367 -12.3896 12.8115c-6.04785 4.16406 -13 6.24219 -19.7246 6.24219
h-1.2998v-1.2998v-30zM552.162 566.723l12.5605 -66.9893l1.27734 -6.81543l1.27734 6.81543l12.5605 66.9893l31.8506 -5.97168l-29.5674 -157.691h-32.2422l-29.5674 157.691zM517.518 561.545l30.0049 -160.025l0.198242 -1.05957h1.0791h34.4004h1.0791
l0.198242 1.05957l30 160l0.00976562 0.0546875l0.209961 1.25781l-1.25195 0.234375l-34.4053 6.45117l-1.27832 0.240234l-0.239258 -1.27734l-11.5225 -61.4512l-11.5225 61.4512l-0.239258 1.27734l-1.27832 -0.240234l-34.4053 -6.45117l-1.25195 -0.234375
l0.209961 -1.25781zM531.381 204.898c4.44434 -2.41895 7.86816 -5.45605 11.46 -9.04883c4.83105 -4.83203 9.66406 -10.7695 14.3945 -17.6201c2.62598 -3.80371 5.20996 -7.88379 7.67578 -12.1846l1.22656 -2.1377l1.07324 2.21777
c2.99414 6.18848 5.57812 12.042 7.43652 18.3633c1.8291 6.2207 3.0293 12.9727 3.14355 21.2119h32.4023c-0.12207 -11.458 -1.85254 -21.499 -4.45605 -30.3555c-3.29297 -11.1973 -7.86328 -20.3906 -11.9229 -28.5498
c-0.108398 -0.217773 -0.21582 -0.435547 -0.324219 -0.651367c-5.12402 -10.3047 -9.27832 -18.8623 -11.3604 -29.084h-32.2598c-2.58691 12.6904 -9.15137 26.9951 -16.4834 38.5186c-3.33691 5.24414 -6.79688 9.89551 -9.9082 13.5186
c-2.4873 2.89551 -4.79688 5.14258 -6.32812 6.39453l-0.344727 0.258789zM565.927 169.467c-2.12305 3.58594 -4.32129 7.00879 -6.55078 10.2373c-4.80078 6.9541 -9.72559 13.0107 -14.6973 17.9834c-3.96094 3.96289 -7.91602 7.45117 -13.2891 10.1387
l-1.16113 0.581055l-0.582031 -1.16406l-15.6543 -31.3076l-0.568359 -1.13574l1.07031 -0.56543l1.09766 -0.823242c1.35156 -1.10547 3.51465 -3.21387 5.91406 -6.00781c3.01562 -3.50977 6.41309 -8.0752 9.68555 -13.2178
c7.38965 -11.6143 13.9932 -26.1982 16.3311 -38.666l0.198242 -1.05957h1.0791h34.4004h1.0791l0.198242 1.05957c1.92676 10.2773 6.04004 18.8057 11.3428 29.4678c0.107422 0.216797 0.21582 0.433594 0.324219 0.652344
c4.05859 8.15918 8.71973 17.5215 12.0869 28.9707c2.7666 9.4082 4.56836 20.1299 4.56836 32.3896v1.2998h-1.2998h-35h-1.2998v-1.2998c0 -8.58984 -1.18262 -15.4365 -3.04688 -21.7773c-1.58008 -5.37305 -3.71484 -10.4385 -6.22656 -15.7559zM715.973 570.341
l10.8096 -28.8271l1.21777 -3.24707l1.21777 3.24707l10.8164 28.8467l35.0254 -13.1348l-29.2275 -77.9395h-35.6641l-29.2275 77.9385zM678.812 559.204l-1.21875 -0.456055l0.456055 -1.21777l30 -80l0.316406 -0.84375h0.901367h37.4668h0.901367l0.316406 0.84375
l30 80l0.456055 1.2168l-1.21777 0.457031l-37.46 14.0479l-1.2168 0.456055l-0.457031 -1.21777l-10.0557 -26.8174l-10.0488 26.7969l-0.457031 1.2168l-1.21582 -0.455078zM714.69 428.527l12.1943 -20.3213l1.11523 -1.85938l1.11523 1.85938l12.1943 20.3213
l32.0693 -19.2422l-28.9531 -48.2539h-32.8516l-28.9531 48.2539zM680.171 410.847l-1.11621 -0.668945l0.667969 -1.11328l30 -50l0.378906 -0.632812h0.736328h34.3242h0.736328l0.378906 0.632812l30 50l0.667969 1.11328l-1.11621 0.668945l-34.2988 20.5801
l-1.12012 0.672852l-0.666992 -1.12793l-0.0253906 -0.0429688l-11.7178 -19.5293l-11.7227 19.5361l-0.0205078 0.0361328l-0.666992 1.12793l-1.12012 -0.672852zM712.14 312.302l14.9414 -14.9424l0.918945 -0.918945l0.918945 0.918945l14.9414 14.9424
l26.4414 -26.4414l-28.7002 -28.7002h-27.2031l-28.7002 28.7002zM682.941 286.779l-0.918945 -0.918945l0.918945 -0.918945l30 -30l0.380859 -0.380859h0.538086h28.2793h0.538086l0.380859 0.380859l30 30l0.918945 0.918945l-0.918945 0.918945l-28.2793 28.2793
l-0.918945 0.918945l-0.918945 -0.918945l-14.9414 -14.9424l-14.9414 14.9424l-0.918945 0.918945l-0.918945 -0.918945zM709.435 214.851l17.8457 -11.8975l0.719727 -0.480469l0.719727 0.480469l17.8457 11.8975l20.7451 -31.1182l-28.6299 -19.0859h-21.3613
l-28.6299 19.0859zM686.188 182.277l30.0186 -20.0127l0.326172 -0.217773h0.393555h22.1484h0.393555l0.326172 0.217773l30 20l0.0566406 0.0390625l1.05176 0.727539l-0.708008 1.06152l-22.1865 33.2803l-0.72168 1.08301l-1.08008 -0.720703l-18.2061 -12.1377
l-18.2061 12.1377l-1.08008 0.720703l-0.72168 -1.08301l-22.1865 -33.2803l-0.708008 -1.06152l1.05176 -0.727539zM705.144 117.334l22.4453 -7.48145l0.411133 -0.136719l0.411133 0.136719l22.4453 7.48145l11.8203 -35.4902l-28.5674 -9.52246h-12.2188
l-28.5762 9.52539zM690.437 81.4355l-0.411133 -1.2334l1.2334 -0.411133l30.0088 -10.0029l0.199219 -0.0664062h0.211914h12.6426h0.211914l0.199219 0.0664062l30 10l1.2334 0.411133l-0.411133 1.23242l-12.6426 37.957l-0.411133 1.23438l-1.2334 -0.411133
l-23.2676 -7.75586l-23.2676 7.75586l-1.2334 0.411133l-0.411133 -1.2334z"/>
</svg>
