<svg viewBox="0 0 480 360"
  xmlns="http://www.w3.org/2000/svg"
  xmlns:html="http://www.w3.org/1999/xhtml">
  <title>Paths With Miterlimited Miter Joins</title>
  <html:link rel="author" title="Skef Iterum" href="https://github.com/skef/"/>

  <path stroke="none" fill="black" d="M96.3379 54.0098l-0.675781 11.9805l108.169 6.00977l-108.169 6.00977l0.666016 11.9814l216.01 -12.001l107.831 -5.99023l-107.831 -5.99023z"/>
  <path stroke="none" fill="black" d="M96.3281 90.0088l-0.666016 11.9814l108.169 6.00977l-108.169 6.00977l0.675781 11.9805l216 -12l107.831 -5.99023l-107.831 -5.99023z"/>
  <path stroke="none" fill="black" d="M96.3379 126.01l-0.00976562 -0.000976562l-0.666016 11.9814l108.169 6.00977l-108.169 6.00977l0.666016 11.9814l0.00976562 -0.000976562l216 -12v-11.9805z"/>
  <path stroke="none" fill="black" d="M96.3379 162.01l-0.00976562 -0.000976562l-0.666016 11.9814l108.169 6.00977l-108.169 6.00977l0.666016 11.9814l0.00976562 -0.000976562l216 -12v-11.9805z"/>
  <path stroke="none" fill="black" d="M96.3379 198.01l-0.00976562 -0.000976562l-0.666016 11.9814l108.169 6.00977l-108.169 6.00977l0.666016 11.9814l0.00976562 -0.000976562l216 -12v-11.9805z"/>
  <path stroke="none" fill="black" d="M96.3379 234.01l-0.00976562 -0.000976562l-0.666016 11.9814l108.169 6.00977l-108.169 6.00977l0.666016 11.9814l0.00976562 -0.000976562l216 -12v-11.9805z"/>
</svg>
