<svg xmlns="http://www.w3.org/2000/svg" xmlns:xlink="http://www.w3.org/1999/xlink" id="Layer_1" x="0" y="0" enable-background="new 0 0 440.7 440" version="1.1" viewBox="0 0 440.7 440" xml:space="preserve"><style type="text/css">.st0{fill:#fff}</style><g><g><rect width="440" height="440" x=".3"/></g><g><rect width="30.4" height="28.3" x="61.5" y="255.3" class="st0"/><path d="M159.7,103.8c-28.5,0-51.7,23.2-51.7,51.7V284h30.4v-60.5h28.6v-30.4h-28.6v-37.5c0-11.8,9.6-21.4,21.4-21.4 c11.5,0,20.8,9.1,21.3,20.4h30.4C210.9,126.5,187.9,103.8,159.7,103.8z" class="st0"/><rect width="30.4" height="28.3" x="302.3" y="126.3" class="st0"/><polygon points="302.4 176.1 302.2 284 332.6 284 332.8 176.1" class="st0"/><path d="M284.5,208.4l0-15.5l0-1l0-15.8h-30.4l-0.1,33.8c-0.8,11.1-10.1,19.9-21.3,19.9c-11.8,0-21.4-9.6-21.4-21.4 v-32.3H181v32.3c0,28.5,23.2,51.7,51.7,51.7c6.9,0,13.6-1.3,19.9-4l1.3-0.6l0,23.1h0.2v5.8c0,11.8-9.6,21.4-21.4,21.4 c-11.5,0-20.8-9.1-21.3-20.4H181c0.5,28.1,23.5,50.8,51.7,50.8c28.5,0,51.7-23.2,51.7-51.7v-3.8h-0.2l0.1-69.9 C284.4,209.9,284.5,209.1,284.5,208.4z" class="st0"/></g></g></svg>