<svg width="480" height="360"
  xmlns="http://www.w3.org/2000/svg"
  xmlns:html="http://www.w3.org/1999/xhtml">
  <title>Closed polygonal path with stroke-width 9</title>
  <html:link rel="author" title="Skef Iterum" href="https://github.com/skef/"/>

  <path stroke="none" fill="black" d="M286.818 76.8184l-60 60l-1.31836 1.31934v1.8623v60v1.8623l1.31836 1.31934l60 60l1.31934 1.31836h1.8623h60h1.8623l1.31934 -1.31836l60 -60l1.31836 -1.31934v-1.8623v-60v-1.8623l-1.31836 -1.31934l-60 -60
  l-1.31934 -1.31836h-1.8623h-60h-1.8623z"/>
  <path stroke="none" fill="white" d="M234.5 141.862l57.3623 -57.3623h56.2754l57.3623 57.3623v56.2754l-57.3623 57.3623h-56.2754l-57.3623 -57.3623v-56.2754z"/>
  <path stroke="green" stroke-width="2.4" fill="none" d="M286.818 76.8184l-60 60l-1.31836 1.31934v1.8623v60v1.8623l1.31836 1.31934l60 60l1.31934 1.31836h1.8623h60h1.8623l1.31934 -1.31836l60 -60l1.31836 -1.31934v-1.8623v-60v-1.8623l-1.31836 -1.31934l-60 -60
  l-1.31934 -1.31836h-1.8623h-60h-1.8623z"/>
  <path stroke="green" stroke-width="2.4" fill="none" d="M234.5 141.862l57.3623 -57.3623h56.2754l57.3623 57.3623v56.2754l-57.3623 57.3623h-56.2754l-57.3623 -57.3623v-56.2754z"/>
</svg>
