<svg xmlns="http://www.w3.org/2000/svg" xmlns:html="http://www.w3.org/1999/xhtml" width="100%" height="100%" viewBox="0 0 480 360"><html:link href="https://www.w3.org/TR/2016/CR-SVG2-20160915/painting.html#Markers" rel="help"/><html:link href="marker-004-ref.svg" rel="match"/><html:meta content="Tests marker property." name="assert"/><defs><marker id="marker2" markerHeight="15" markerUnits="strokeWidth" markerWidth="15" refX="100" refY="100" viewBox="0 0 200 200"><rect width="200" height="200" fill="red" stroke="none"/></marker></defs><text x="240" y="28" font-size="20" text-anchor="middle">&apos;marker&apos; attribute test</text><g fill="gold" fill-rule="evenodd" stroke="#000" marker="url(#marker2)" transform="translate(50,20)"><path d="M10,60 Q90,60 90,140 Q10,140 10,60 Z M10,140 Q10,60 90,60 Q90,140 10,140 Z M50,70 L80,100 50,130 20,100 Z"/><polygon points="100 60 120 140 140 60 160 140 180 60 180 100 100 100"/><polyline points="190 60 210 140 230 60 250 140 270 60 270 100 190 100"/><line x1="280" x2="370" y1="60" y2="140"/><line x1="370" x2="280" y1="60" y2="140"/></g></svg>