<svg xmlns="http://www.w3.org/2000/svg" width="500" height="300"><line x1="10" x2="100" y1="50" y2="50" stroke="#000" class="start"/><rect width="10" height="10" x="10" y="50" fill="#00f"/><path stroke="#000" d="M 10 100 L 50 100 L 100 100" class="start"/><rect width="10" height="10" x="10" y="100" fill="#00f"/><polygon stroke="#000" points="10 150 50 150 100 150" class="start"/><rect width="10" height="10" x="10" y="150" fill="#00f"/><polyline stroke="#000" points="10 200 50 200 100 200" class="start"/><rect width="10" height="10" x="10" y="200" fill="#00f"/><line x1="150" x2="250" y1="50" y2="50" stroke="#000" class="end"/><rect width="10" height="10" x="250" y="50" fill="#00f"/><path stroke="#000" d="M 150 100 L 200 100 L 250 100" class="end"/><rect width="10" height="10" x="250" y="100" fill="#00f"/><polygon stroke="#000" points="250 150 200 150" class="end"/><rect width="10" height="10" x="250" y="150" fill="#00f"/><polyline stroke="#000" points="150 200 200 200 250 200" class="end"/><rect width="10" height="10" x="250" y="200" fill="#00f"/><line x1="300" x2="400" y1="50" y2="50" stroke="#000" class="mid"/><path stroke="#000" d="M 300 100 L 350 100 L 400 100" class="mid"/><rect width="10" height="10" x="350" y="100" fill="#00f"/><polygon stroke="#000" points="300 150 350 150" class="mid"/><rect width="10" height="10" x="350" y="150" fill="#00f"/><polyline stroke="#000" points="300 200 350 200 400 200" class="mid"/><rect width="10" height="10" x="350" y="200" fill="#00f"/></svg>