<svg width="100%" height="100%" viewBox="0 0 480 360"
  xmlns="http://www.w3.org/2000/svg"
  xmlns:html="http://www.w3.org/1999/xhtml">

    <style type="text/css">
      .testpaths {
      fill:none;
      stroke:black;
      stroke-width:8px;
      }
    </style>

    <text x="50%" y="3em" style="font: 18px; text-anchor:middle;">Test marker overflow</text>

    <g style="font: 14px; text-anchor:middle" transform="translate(0,280)">
      <text x="60">default</text>
      <text x="155">'visible'</text>
      <text x="245">'auto'</text>
      <text x="340">'scroll'</text>
      <text x="430">'hidden'</text>
    </g>

    <g transform="translate(-30,75)">
      <g id="subtest1" transform="scale(0.6)">
        <path id="p1" class="testpaths" d="M 130 40 L 180 40 L 180 90"/>
        <rect x="118" y="28" width="16" height="16" fill="purple" stroke="none"/>
        <rect x="168" y="28" width="16" height="16" fill="purple" stroke="none"/>
        <rect x="168" y="78" width="16" height="16" fill="purple" stroke="none"/>
        
        <path id="p2" class="testpaths" d="M 130 135 L 180 135 L 180 185"/>
        <rect x="118" y="123" width="16" height="16" fill="purple" stroke="none"/>
        <rect x="172" y="127" width="16" height="16" fill="green" stroke="none"/>
        <path d="M180,185 h-8 l8,-16" fill="blue" stroke="none"/>

        <path id="p3" class="testpaths" d="M 130 230 L 180 230 L 180 280"/>
        <path d="M0,0 h-8 l8,-16" fill="blue" stroke="none" transform="translate(130,230)"/>
        <path d="M0,0 h-8 l8,-16" fill="blue" stroke="none" transform="translate(180,230), rotate(45)"/>
        <path d="M0,0 h-8 l8,-16" fill="blue" stroke="none" transform="translate(180,280), rotate(90)"/>
      </g>

      <g id="subtest2" transform="scale(0.6) translate(150,0)">
        <path id="p4" class="testpaths" d="M 130 40 L 180 40 L 180 90"/>
        <rect x="118" y="28" width="24" height="24" fill="purple" stroke="none"/>
        <rect x="168" y="28" width="24" height="24" fill="purple" stroke="none"/>
        <rect x="168" y="78" width="24" height="24" fill="purple" stroke="none"/>
        
        <path id="p5" class="testpaths" d="M 130 135 L 180 135 L 180 185"/>
        <rect x="118" y="123" width="24" height="24" fill="purple" stroke="none"/>
        <circle cx="180" cy="135" r="16" fill="green" stroke="none"/>
        <path d="M0,-16 L16,16 h-32 z" fill="blue" stroke="none" transform="translate(180,185)"/>

        <path id="p6" class="testpaths" d="M 130 230 L 180 230 L 180 280"/>
        <path d="M0,-16 L16,16 h-32 z" fill="blue" stroke="none" transform="translate(130,230)"/>
        <path d="M0,-16 L16,16 h-32 z" fill="blue" stroke="none" transform="translate(180,230) rotate(45)"/>
        <path d="M0,-16 L16,16 h-32 z" fill="blue" stroke="none" transform="translate(180,280) rotate(90)"/>
      </g>

      <g id="subtest3" transform="scale(0.6) translate(300,0)">
        <path id="p7" class="testpaths" d="M 130 40 L 180 40 L 180 90"/>
        <rect x="118" y="28" width="16" height="16" fill="purple" stroke="none"/>
        <rect x="168" y="28" width="16" height="16" fill="purple" stroke="none"/>
        <rect x="168" y="78" width="16" height="16" fill="purple" stroke="none"/>
 
        <path id="p8" class="testpaths" d="M 130 135 L 180 135 L 180 185"/>
        <rect x="118" y="123" width="16" height="16" fill="purple" stroke="none"/>
        <rect x="172" y="127" width="16" height="16" fill="green" stroke="none"/>
        <path d="M180,185 h-8 l8,-16" fill="blue" stroke="none"/>
 
        <path id="p9" class="testpaths" d="M 130 230 L 180 230 L 180 280"/>
        <path d="M0,0 h-8 l8,-16" fill="blue" stroke="none" transform="translate(130,230)"/>
        <path d="M0,0 h-8 l8,-16" fill="blue" stroke="none" transform="translate(180,230), rotate(45)"/>
        <path d="M0,0 h-8 l8,-16" fill="blue" stroke="none" transform="translate(180,280), rotate(90)"/>
      </g>

      <g id="subtest4" transform="scale(0.6) translate(450,0)">
        <path id="p10" class="testpaths" d="M 130 40 L 180 40 L 180 90"/>
        <rect x="118" y="28" width="16" height="16" fill="purple" stroke="none"/>
        <rect x="168" y="28" width="16" height="16" fill="purple" stroke="none"/>
        <rect x="168" y="78" width="16" height="16" fill="purple" stroke="none"/>
 
        <path id="p11" class="testpaths" d="M 130 135 L 180 135 L 180 185"/>
        <rect x="118" y="123" width="16" height="16" fill="purple" stroke="none"/>
        <rect x="172" y="127" width="16" height="16" fill="green" stroke="none"/>
        <path d="M180,185 h-8 l8,-16" fill="blue" stroke="none"/>

        <path id="p12" class="testpaths" d="M 130 230 L 180 230 L 180 280"/>
        <path d="M0,0 h-8 l8,-16" fill="blue" stroke="none" transform="translate(130,230)"/>
        <path d="M0,0 h-8 l8,-16" fill="blue" stroke="none" transform="translate(180,230), rotate(45)"/>
        <path d="M0,0 h-8 l8,-16" fill="blue" stroke="none" transform="translate(180,280), rotate(90)"/>
      </g>

      <g id="subtest5" transform="scale(0.6) translate(600,0)">
        <path id="p13" class="testpaths" d="M 130 40 L 180 40 L 180 90"/>
        <rect x="118" y="28" width="16" height="16" fill="purple" stroke="none"/>
        <rect x="168" y="28" width="16" height="16" fill="purple" stroke="none"/>
        <rect x="168" y="78" width="16" height="16" fill="purple" stroke="none"/>
 
        <path id="p14" class="testpaths" d="M 130 135 L 180 135 L 180 185"/>
        <rect x="118" y="123" width="16" height="16" fill="purple" stroke="none"/>
        <rect x="172" y="127" width="16" height="16" fill="green" stroke="none"/>
        <path d="M180,185 h-8 l8,-16" fill="blue" stroke="none"/>

        <path id="p15" class="testpaths" d="M 130 230 L 180 230 L 180 280"/>
        <path d="M0,0 h-8 l8,-16" fill="blue" stroke="none" transform="translate(130,230)"/>
        <path d="M0,0 h-8 l8,-16" fill="blue" stroke="none" transform="translate(180,230), rotate(45)"/>
        <path d="M0,0 h-8 l8,-16" fill="blue" stroke="none" transform="translate(180,280), rotate(90)"/>
      </g>
    </g>
</svg>
