<svg xmlns="http://www.w3.org/2000/svg" xmlns:html="http://www.w3.org/1999/xhtml" width="500" height="500"><html:link href="https://www.w3.org/TR/2016/CR-SVG2-20160915/painting.html#Markers" rel="help"/><html:link href="marker-005-ref.svg" rel="match"/><html:meta content="Test all the 'overflow' property values except 'inherit' on the 'marker' element." name="assert"/><defs><marker id="marker1" markerHeight="2" markerUnits="strokeWidth" markerWidth="2" refX="7.5" refY="7.5" viewBox="0 0 10 10"><rect width="15" height="15" fill="purple" stroke="none"/></marker><marker id="marker2" markerHeight="2" markerUnits="strokeWidth" markerWidth="2" orient="auto" refX="10" refY="10" viewBox="0 0 10 10"><path fill="#00f" stroke="none" d="M 10 0 L 20 20 L 0 20 Z"/></marker><marker id="markerStart" markerHeight="2" markerUnits="strokeWidth" markerWidth="2" refX="7.5" refY="7.5" viewBox="0 0 10 10"><rect width="15" height="15" fill="purple" stroke="none"/></marker><marker id="markerMiddle" markerHeight="2" markerUnits="strokeWidth" markerWidth="2" refX="4" refY="4" viewBox="0 0 8 8"><circle cx="4" cy="4" r="8" fill="green" stroke="none"/></marker><marker id="markerEnd" markerHeight="2" markerUnits="strokeWidth" markerWidth="2" refX="10" refY="10" viewBox="0 0 10 10"><path fill="#00f" stroke="none" d="M 10 0 L 20 20 L 0 20 Z"/></marker><marker id="vmarker1" markerHeight="2" markerUnits="strokeWidth" markerWidth="2" overflow="visible" refX="7.5" refY="7.5" viewBox="0 0 10 10"><rect width="15" height="15" fill="purple" stroke="none"/></marker><marker id="vmarker2" markerHeight="2" markerUnits="strokeWidth" markerWidth="2" orient="auto" overflow="visible" refX="10" refY="10" viewBox="0 0 10 10"><path fill="#00f" stroke="none" d="M 10 0 L 20 20 L 0 20 Z"/></marker><marker id="vmarkerStart" markerHeight="2" markerUnits="strokeWidth" markerWidth="2" overflow="visible" refX="7.5" refY="7.5" viewBox="0 0 10 10"><rect width="15" height="15" fill="purple" stroke="none"/></marker><marker id="vmarkerMiddle" markerHeight="2" markerUnits="strokeWidth" markerWidth="2" overflow="visible" refX="4" refY="4" viewBox="0 0 8 8"><circle cx="4" cy="4" r="8" fill="green" stroke="none"/></marker><marker id="vmarkerEnd" markerHeight="2" markerUnits="strokeWidth" markerWidth="2" overflow="visible" refX="10" refY="10" viewBox="0 0 10 10"><path fill="#00f" stroke="none" d="M 10 0 L 20 20 L 0 20 Z"/></marker><marker id="amarker1" markerHeight="2" markerUnits="strokeWidth" markerWidth="2" overflow="auto" refX="7.5" refY="7.5" viewBox="0 0 10 10"><rect width="15" height="15" fill="purple" stroke="none"/></marker><marker id="amarker2" markerHeight="2" markerUnits="strokeWidth" markerWidth="2" orient="auto" overflow="auto" refX="10" refY="10" viewBox="0 0 10 10"><path fill="#00f" stroke="none" d="M 10 0 L 20 20 L 0 20 Z"/></marker><marker id="amarkerStart" markerHeight="2" markerUnits="strokeWidth" markerWidth="2" overflow="auto" refX="7.5" refY="7.5" viewBox="0 0 10 10"><rect width="15" height="15" fill="purple" stroke="none"/></marker><marker id="amarkerMiddle" markerHeight="2" markerUnits="strokeWidth" markerWidth="2" overflow="auto" refX="4" refY="4" viewBox="0 0 8 8"><circle cx="4" cy="4" r="8" fill="green" stroke="none"/></marker><marker id="amarkerEnd" markerHeight="2" markerUnits="strokeWidth" markerWidth="2" overflow="auto" refX="10" refY="10" viewBox="0 0 10 10"><path fill="#00f" stroke="none" d="M 10 0 L 20 20 L 0 20 Z"/></marker><marker id="smarker1" markerHeight="2" markerUnits="strokeWidth" markerWidth="2" overflow="scroll" refX="7.5" refY="7.5" viewBox="0 0 10 10"><rect width="15" height="15" fill="purple" stroke="none"/></marker><marker id="smarker2" markerHeight="2" markerUnits="strokeWidth" markerWidth="2" orient="auto" overflow="scroll" refX="10" refY="10" viewBox="0 0 10 10"><path fill="#00f" stroke="none" d="M 10 0 L 20 20 L 0 20 Z"/></marker><marker id="smarkerStart" markerHeight="2" markerUnits="strokeWidth" markerWidth="2" overflow="scroll" refX="7.5" refY="7.5" viewBox="0 0 10 10"><rect width="15" height="15" fill="purple" stroke="none"/></marker><marker id="smarkerMiddle" markerHeight="2" markerUnits="strokeWidth" markerWidth="2" overflow="scroll" refX="4" refY="4" viewBox="0 0 8 8"><circle cx="4" cy="4" r="8" fill="green" stroke="none"/></marker><marker id="smarkerEnd" markerHeight="2" markerUnits="strokeWidth" markerWidth="2" overflow="scroll" refX="10" refY="10" viewBox="0 0 10 10"><path fill="#00f" stroke="none" d="M 10 0 L 20 20 L 0 20 Z"/></marker><marker id="hmarker1" markerHeight="2" markerUnits="strokeWidth" markerWidth="2" overflow="hidden" refX="7.5" refY="7.5" viewBox="0 0 10 10"><rect width="15" height="15" fill="purple" stroke="none"/></marker><marker id="hmarker2" markerHeight="2" markerUnits="strokeWidth" markerWidth="2" orient="auto" overflow="hidden" refX="10" refY="10" viewBox="0 0 10 10"><path fill="#00f" stroke="none" d="M 10 0 L 20 20 L 0 20 Z"/></marker><marker id="hmarkerStart" markerHeight="2" markerUnits="strokeWidth" markerWidth="2" overflow="hidden" refX="7.5" refY="7.5" viewBox="0 0 10 10"><rect width="15" height="15" fill="purple" stroke="none"/></marker><marker id="hmarkerMiddle" markerHeight="2" markerUnits="strokeWidth" markerWidth="2" overflow="hidden" refX="4" refY="4" viewBox="0 0 8 8"><circle cx="4" cy="4" r="8" fill="green" stroke="none"/></marker><marker id="hmarkerEnd" markerHeight="2" markerUnits="strokeWidth" markerWidth="2" overflow="hidden" refX="10" refY="10" viewBox="0 0 10 10"><path fill="#00f" stroke="none" d="M 10 0 L 20 20 L 0 20 Z"/></marker></defs><style type="text/css">.testpaths{fill:none;stroke:#000;stroke-width:8px}#p1{marker:url(#marker1)}#p2{marker-start:url(#markerStart);marker-mid:url(#markerMiddle);marker-end:url(#markerEnd)}#p3{marker:url(#marker2)}#p4{marker:url(#vmarker1)}#p5{marker-start:url(#vmarkerStart);marker-mid:url(#vmarkerMiddle);marker-end:url(#vmarkerEnd)}#p6{marker:url(#vmarker2)}#p7{marker:url(#amarker1)}#p8{marker-start:url(#amarkerStart);marker-mid:url(#amarkerMiddle);marker-end:url(#amarkerEnd)}#p9{marker:url(#amarker2)}#p10{marker:url(#smarker1)}#p11{marker-start:url(#smarkerStart);marker-mid:url(#smarkerMiddle);marker-end:url(#smarkerEnd)}#p12{marker:url(#smarker2)}#p13{marker:url(#hmarker1)}#p14{marker-start:url(#hmarkerStart);marker-mid:url(#hmarkerMiddle);marker-end:url(#hmarkerEnd)}#p15{marker:url(#hmarker2)}</style><text x="50%" y="3em" text-anchor="middle" style="font:18px">Test marker overflow</text><g style="font:14px" text-anchor="middle"><text x="60" transform="translate(0,280)">default</text><text x="155" transform="translate(0,280)">&apos;visible&apos;</text><text x="245" transform="translate(0,280)">&apos;auto&apos;</text><text x="340" transform="translate(0,280)">&apos;scroll&apos;</text><text x="430" transform="translate(0,280)">&apos;hidden&apos;</text></g><g transform="translate(-30,75)"><g id="subtest1" transform="scale(0.6)"><path id="p1" d="M 130 40 L 180 40 L 180 90" class="testpaths"/><path id="p2" d="M 130 135 L 180 135 L 180 185" class="testpaths"/><path id="p3" d="M 130 230 L 180 230 L 180 280" class="testpaths"/></g><g id="subtest2" transform="scale(0.6) translate(150,0)"><path id="p4" d="M 130 40 L 180 40 L 180 90" class="testpaths"/><path id="p5" d="M 130 135 L 180 135 L 180 185" class="testpaths"/><path id="p6" d="M 130 230 L 180 230 L 180 280" class="testpaths"/></g><g id="subtest3" transform="scale(0.6) translate(300,0)"><path id="p7" d="M 130 40 L 180 40 L 180 90" class="testpaths"/><path id="p8" d="M 130 135 L 180 135 L 180 185" class="testpaths"/><path id="p9" d="M 130 230 L 180 230 L 180 280" class="testpaths"/></g><g id="subtest4" transform="scale(0.6) translate(450,0)"><path id="p10" d="M 130 40 L 180 40 L 180 90" class="testpaths"/><path id="p11" d="M 130 135 L 180 135 L 180 185" class="testpaths"/><path id="p12" d="M 130 230 L 180 230 L 180 280" class="testpaths"/></g><g id="subtest5" transform="scale(0.6) translate(600,0)"><path id="p13" d="M 130 40 L 180 40 L 180 90" class="testpaths"/><path id="p14" d="M 130 135 L 180 135 L 180 185" class="testpaths"/><path id="p15" d="M 130 230 L 180 230 L 180 280" class="testpaths"/></g></g></svg>