<svg viewBox="0 0 480 360"
  xmlns="http://www.w3.org/2000/svg"
  xmlns:html="http://www.w3.org/1999/xhtml">
  <title>Ellipse 7</title>
  <html:link rel="author" title="Skef Iterum" href="https://github.com/skef/"/>

  <path stroke="black" stroke-width="1.5" fill="#0000FF" d="M256 220c0 8.69043 4.13477 16.585 10.7646 23.0518c5.90234 5.75781 13.8213 10.4912 23.0928 14.0166c11.5938 4.40723 25.3594 6.93164 40.1426 6.93164s28.5488 -2.52441 40.1426 -6.93164
  c9.27148 -3.52539 17.1904 -8.25879 23.0928 -14.0166c6.62988 -6.4668 10.7646 -14.3613 10.7646 -23.0518s-4.13477 -16.585 -10.7646 -23.0518c-5.90234 -5.75781 -13.8213 -10.4912 -23.0928 -14.0166c-11.5938 -4.40723 -25.3594 -6.93164 -40.1426 -6.93164
  s-28.5488 2.52441 -40.1426 6.93164c-9.27148 3.52539 -17.1904 8.25879 -23.0928 14.0166c-6.62988 6.4668 -10.7646 14.3613 -10.7646 23.0518z"/>
  <path stroke="black" stroke-width="1.5" fill="#00FF00" d="M264 220c0 -6.03711 2.8291 -11.9414 8.34961 -17.3262c4.89746 -4.77734 11.875 -9.04004 20.3467 -12.2607c10.5869 -4.02441 23.4492 -6.41309 37.3037 -6.41309s26.7168 2.38867 37.3037 6.41309
  c8.47168 3.2207 15.4492 7.4834 20.3467 12.2607c5.52051 5.38477 8.34961 11.2891 8.34961 17.3262s-2.8291 11.9414 -8.34961 17.3262c-4.89746 4.77734 -11.875 9.04004 -20.3467 12.2607c-10.5869 4.02441 -23.4492 6.41309 -37.3037 6.41309
  s-26.7168 -2.38867 -37.3037 -6.41309c-8.47168 -3.2207 -15.4492 -7.4834 -20.3467 -12.2607c-5.52051 -5.38477 -8.34961 -11.2891 -8.34961 -17.3262z"/>
</svg>
