<svg id="svg-root"
  width="100%" height="100%" viewBox="0 0 480 360"
  xmlns="http://www.w3.org/2000/svg"
  xmlns:xlink="http://www.w3.org/1999/xlink"
  xmlns:html="http://www.w3.org/1999/xhtml">
  <g id="testmeta">
    <title>Polygon 3</title>
    <html:link rel="author"
          title="Skef Iterum"
          href="https://github.com/skef/"/>
  </g>

  <g id="test-body-reference">
    <path style="stroke:none;fill:black" d="M376.952 77.5723l-24.5098 -34.3135l-2.05957 -2.88379l-2.50391 2.50391l-24.8232 24.8232l-34.7969 24.8555l-3.41992 2.44238l3.41992 2.44238l34.7969 24.8555l24.8232 24.8232l2.50391 2.50391l2.05957 -2.88379
  l24.5098 -34.3135l34.2275 -14.6689l6.4375 -2.75879l-6.4375 -2.75879z"/>
    <path style="stroke:none;fill:blue" d="M295.161 95l31.5801 -22.5576l0.203125 -0.144531l0.176758 -0.176758l22.4961 -22.4961l22.9404 32.1162l0.490234 0.686523l0.772461 0.331055l28.5625 12.2412l-28.5625 12.2412l-0.772461 0.331055l-0.490234 0.686523
  l-22.9404 32.1162l-22.4961 -22.4961l-0.176758 -0.176758l-0.203125 -0.144531z"/>
  </g>
</svg>
