<svg viewBox="0 0 480 360"
  xmlns="http://www.w3.org/2000/svg"
  xmlns:html="http://www.w3.org/1999/xhtml">
  <g id="testmeta">
    <title>Rectangle 5</title>
    <html:link rel="author" title="Skef Iterum" href="https://github.com/skef/"/>
  </g>

  <g id="test-body-reference">
    <path stroke="none" fill="blue" d="M352.5 37c1.88477 0 3.59668 0.735352 5.0293 1.8291c1.79297 1.36914 3.25586 3.29883 4.60449 5.66406c3.0293 5.31348 5.57715 13.1455 7.78809 23.0908c4.96875 22.3535 8.07812 55.4434 8.07812 92.416v40
  c0 36.9727 -3.10938 70.0625 -8.07812 92.416c-2.21094 9.94531 -4.75879 17.7773 -7.78809 23.0908c-1.34863 2.36523 -2.81152 4.29492 -4.60449 5.66406c-1.43262 1.09375 -3.14453 1.8291 -5.0293 1.8291s-3.59668 -0.735352 -5.0293 -1.8291
  c-1.79297 -1.36914 -3.25586 -3.29883 -4.60449 -5.66406c-3.0293 -5.31348 -5.57715 -13.1455 -7.78809 -23.0908c-4.96875 -22.3535 -8.07812 -55.4434 -8.07812 -92.416v-40c0 -36.9727 3.10938 -70.0625 8.07812 -92.416
  c2.21094 -9.94531 4.75879 -17.7773 7.78809 -23.0908c1.34863 -2.36523 2.81152 -4.29492 4.60449 -5.66406c1.43262 -1.09375 3.14453 -1.8291 5.0293 -1.8291z"/>
    <path stroke="none" fill="lime" d="M352.5 43c-0.295898 0 -0.728516 0.09375 -1.39355 0.601562c-0.829102 0.632812 -1.91602 1.91309 -3.02441 3.85645c-2.49707 4.38086 -5.00586 11.8047 -7.14648 21.4326c-4.82129 21.6855 -7.93555 54.4932 -7.93555 91.1094
  v40c0 36.6162 3.11426 69.4238 7.93555 91.1094c2.14062 9.62793 4.64941 17.0518 7.14648 21.4326c1.1084 1.94336 2.19531 3.22363 3.02441 3.85645c0.665039 0.507812 1.09766 0.601562 1.39355 0.601562s0.728516 -0.09375 1.39355 -0.601562
  c0.829102 -0.632812 1.91602 -1.91309 3.02441 -3.85645c2.49707 -4.38086 5.00586 -11.8047 7.14648 -21.4326c4.82129 -21.6855 7.93555 -54.4932 7.93555 -91.1094v-40c0 -36.6162 -3.11426 -69.4238 -7.93555 -91.1094
  c-2.14062 -9.62793 -4.64941 -17.0518 -7.14648 -21.4326c-1.1084 -1.94336 -2.19531 -3.22363 -3.02441 -3.85645c-0.665039 -0.507812 -1.09766 -0.601562 -1.39355 -0.601562z"/>
  </g>
</svg>
