<svg viewBox="0 0 480 360"
  xmlns="http://www.w3.org/2000/svg"
  xmlns:html="http://www.w3.org/1999/xhtml">
  <g id="testmeta">
    <title>Rectangle 3</title>
    <html:link rel="author" title="Skef Iterum" href="https://github.com/skef/"/>
  </g>

  <g id="test-body-reference">
    <path stroke="none" fill="blue" d="M192 31h21c4.17285 0 7.31934 2.13477 9.26074 4.10742c1.77246 1.7998 2.95312 3.72949 3.96973 5.75879c1.27148 2.54004 2.27344 5.33008 3.15723 8.43457c2.95801 10.3975 4.6123 24.6934 4.6123 40.6992v180
  c0 16.0059 -1.6543 30.3018 -4.6123 40.6992c-0.883789 3.10449 -1.88574 5.89453 -3.15723 8.43457c-1.0166 2.0293 -2.19727 3.95898 -3.96973 5.75879c-1.94141 1.97266 -5.08789 4.10742 -9.26074 4.10742h-21c-4.17285 0 -7.31934 -2.13477 -9.26074 -4.10742
  c-1.77246 -1.7998 -2.95312 -3.72949 -3.96973 -5.75879c-1.27148 -2.54004 -2.27344 -5.33008 -3.15723 -8.43457c-2.95801 -10.3975 -4.6123 -24.6934 -4.6123 -40.6992v-180c0 -16.0059 1.6543 -30.3018 4.6123 -40.6992
  c0.883789 -3.10449 1.88574 -5.89453 3.15723 -8.43457c1.0166 -2.0293 2.19727 -3.95898 3.96973 -5.75879c1.94141 -1.97266 5.08789 -4.10742 9.26074 -4.10742z"/>
    <path stroke="none" fill="lime" d="M194.83 311h15.334c0.319336 -0.65332 0.697266 -1.5293 1.07031 -2.58301c0.782227 -2.21094 1.57324 -5.17969 2.25293 -8.66895c1.5332 -7.87012 2.5127 -18.3438 2.5127 -29.748v-180
  c0 -13.0303 -1.29395 -24.8613 -3.19727 -32.9434c-0.748047 -3.17773 -1.59668 -5.75391 -2.33887 -7.42578c-0.103516 -0.235352 -0.202148 -0.445312 -0.293945 -0.630859h-15.334c-0.319336 0.65332 -0.697266 1.5293 -1.07031 2.58301
  c-0.782227 2.21094 -1.57324 5.17969 -2.25293 8.66895c-1.5332 7.87012 -2.5127 18.3438 -2.5127 29.748v180c0 13.0303 1.29395 24.8613 3.19727 32.9434c0.748047 3.17773 1.59668 5.75391 2.33887 7.42578c0.103516 0.235352 0.202148 0.445312 0.293945 0.630859z"/>
  </g>
</svg>
