<svg xmlns="http://www.w3.org/2000/svg" xmlns:xlink="http://www.w3.org/1999/xlink" width="232" height="288" viewBox="0 0 174.25 216"><g id="graph0" class="graph" transform="scale(1 1) rotate(0) translate(4 212)"><title>reftest_graph_example</title><polygon fill="#fff" stroke="transparent" points="-4 4 -4 -212 170.255 -212 170.255 4 -4 4"/><g id="node1" class="node"><title>a.html</title><ellipse cx="81.376" cy="-190" fill="none" stroke="#000" rx="32.415" ry="18"/><text x="81.376" y="-185.8" fill="#000" font-family="Times,serif" font-size="14" text-anchor="middle">a.html</text></g><g id="node2" class="node"><title>b.html</title><ellipse cx="40.376" cy="-104" fill="none" stroke="#000" rx="32.908" ry="18"/><text x="40.376" y="-99.8" fill="#000" font-family="Times,serif" font-size="14" text-anchor="middle">b.html</text></g><g id="edge1" class="edge"><title>a.html-&gt;b.html</title><path fill="none" stroke="#000" d="M73.0787,-172.5966C67.3923,-160.6692 59.7365,-144.6106 53.2618,-131.0295"/><polygon fill="#000" stroke="#000" points="56.264 -129.193 48.801 -121.673 49.945 -132.206 56.264 -129.193"/><text x="71.271" y="-142.8" fill="#000" font-family="Times,serif" font-size="14" text-anchor="middle">==</text></g><g id="node3" class="node"><title>c.html</title><ellipse cx="127.376" cy="-104" fill="none" stroke="#000" rx="32.415" ry="18"/><text x="127.376" y="-99.8" fill="#000" font-family="Times,serif" font-size="14" text-anchor="middle">c.html</text></g><g id="edge2" class="edge"><title>a.html-&gt;c.html</title><path fill="none" stroke="#000" d="M90.6844,-172.5966C97.1688,-160.4736 105.9359,-144.0829 113.2742,-130.3635"/><polygon fill="#000" stroke="#000" points="116.45 -131.846 118.081 -121.377 110.278 -128.545 116.45 -131.846"/><text x="115.271" y="-142.8" fill="#000" font-family="Times,serif" font-size="14" text-anchor="middle">==</text></g><g id="node4" class="node"><title>b1.html</title><ellipse cx="37.376" cy="-18" fill="none" stroke="#000" rx="37.252" ry="18"/><text x="37.376" y="-13.8" fill="#000" font-family="Times,serif" font-size="14" text-anchor="middle">b1.html</text></g><g id="edge3" class="edge"><title>b.html-&gt;b1.html</title><path fill="none" stroke="#000" d="M39.7394,-85.7616C39.3416,-74.3597 38.821,-59.4342 38.3696,-46.494"/><polygon fill="#000" stroke="#000" points="41.858 -46.084 38.011 -36.212 34.862 -46.328 41.858 -46.084"/><text x="47.271" y="-56.8" fill="#000" font-family="Times,serif" font-size="14" text-anchor="middle">==</text></g><g id="node5" class="node"><title>c1.html</title><ellipse cx="129.376" cy="-18" fill="none" stroke="#000" rx="36.758" ry="18"/><text x="129.376" y="-13.8" fill="#000" font-family="Times,serif" font-size="14" text-anchor="middle">c1.html</text></g><g id="edge4" class="edge"><title>c.html-&gt;c1.html</title><path fill="none" stroke="#000" d="M127.7998,-85.7616C128.0649,-74.3597 128.412,-59.4342 128.713,-46.494"/><polygon fill="#000" stroke="#000" points="132.219 -46.291 128.952 -36.212 125.22 -46.128 132.219 -46.291"/><text x="134.654" y="-56.8" fill="#000" font-family="Times,serif" font-size="14" text-anchor="middle">!=</text></g></g></svg>